<?xml version="1.0" encoding="utf-8"?>
<!-- Generator: Adobe Illustrator 19.0.0, SVG Export Plug-In . SVG Version: 6.00 Build 0)  -->
<svg version="1.1" id="Layer_1" xmlns="http://www.w3.org/2000/svg" xmlns:xlink="http://www.w3.org/1999/xlink" x="0px" y="0px"
	 viewBox="0 0 627 598.5" style="enable-background:new 0 0 627 598.5;" xml:space="preserve">
<style type="text/css">
	.st0{fill:none;stroke:#231F20;stroke-width:2;stroke-linecap:round;stroke-linejoin:round;stroke-miterlimit:10;}
	.st1{fill:none;stroke:#231F20;stroke-width:2;stroke-miterlimit:10;}
	.st2{fill:#C99066;stroke:#231F20;stroke-miterlimit:10;}
</style>
<g id="closed-padlock">
	<rect x="34.6" y="44.4" class="st0" width="22" height="17.1"/>
	<path class="st0" d="M48.1,51.2c0-1.4-1.1-2.5-2.5-2.5c-1.4,0-2.5,1.1-2.5,2.5c0,0.9,0.5,1.7,1.3,2.2v3.8h2.4v-3.8
		C47.6,52.9,48.1,52.1,48.1,51.2z"/>
	<path class="st0" d="M55.2,44.4c0,0,0-3.5,0-3.5c-0.1-5.2-4.3-9.4-9.5-9.4c-5.2,0-9.5,4.2-9.5,9.4c0,0,0,3.4,0,3.5"/>
</g>
<g id="open-padlock">
	<rect x="123.1" y="44.3" class="st0" width="22" height="16.9"/>
	<path class="st0" d="M136.6,51.1c0-1.4-1.1-2.5-2.5-2.5s-2.5,1.1-2.5,2.5c0,0.9,0.5,1.7,1.3,2.1v3.7h2.4v-3.7
		C136.1,52.8,136.6,52,136.6,51.1z"/>
	<path class="st0" d="M142.4,36.4c0,0-2.5-2.4-2.5-2.4c-3.7-3.6-9.7-3.6-13.4,0.1c-2.8,2.7-3.5,6.8-2.1,10.1"/>
</g>
<path id="raindrop" class="st0" d="M300.3,50.9c0,5.8,4.9,10.6,11,10.6s11-4.7,11-10.6c0-2-0.6-3.9-1.6-5.5l-9.4-14l-9.4,14
	C300.8,47.1,300.3,48.9,300.3,50.9z"/>
<g id="magnifying-glass">
	<path id="XMLID_29_" class="st0" d="M226.1,34.7c4.3,4.3,4.3,11.3,0,15.6s-11.2,4.3-15.5,0c-4.3-4.3-4.3-11.3,0-15.6
		C214.9,30.4,221.8,30.4,226.1,34.7z"/>
	<line id="XMLID_28_" class="st0" x1="226.3" y1="50.4" x2="237.4" y2="61.5"/>
</g>
<g id="trash-can">
	<polygon id="XMLID_48_" class="st0" points="409.3,61.5 390.3,61.5 388.8,35.1 410.7,35.1 	"/>
	<line id="XMLID_47_" class="st0" x1="411" y1="35.1" x2="414.8" y2="35.1"/>
	<line id="XMLID_46_" class="st0" x1="388.6" y1="35.1" x2="384.8" y2="35.1"/>
	<polyline id="XMLID_45_" class="st0" points="395.1,34.8 395.1,31.5 404.5,31.5 404.5,34.8 	"/>
	<line id="XMLID_44_" class="st0" x1="393.8" y1="39.1" x2="394.8" y2="57.6"/>
	<line id="XMLID_43_" class="st0" x1="405.7" y1="39.1" x2="404.7" y2="57.6"/>
	<line id="XMLID_42_" class="st0" x1="399.8" y1="39.1" x2="399.8" y2="57.6"/>
</g>
<g id="settings">
	<path id="XMLID_41_" class="st0" d="M503.3,48.3v-3.7l-3-0.3c-0.3-1.7-1-3.3-2-4.7l1.9-2.4l-2.6-2.6l-2.4,1.9
		c-1.4-0.9-3-1.6-4.7-1.9l-0.3-3.1h-3.7l-0.3,3.1c-1.7,0.3-3.2,1-4.6,1.9l-2.4-1.9l-2.6,2.6l1.9,2.4c-1,1.4-1.6,3-1.9,4.7l-3.1,0.3
		v3.7l3.1,0.3c0.3,1.7,1,3.3,1.9,4.7l-1.9,2.4l2.6,2.6l2.4-1.9c1.4,0.9,2.9,1.6,4.6,1.9l0.3,3.1h3.7l0.3-3.1c1.7-0.3,3.3-1,4.7-1.9
		l2.4,1.9l2.6-2.6l-1.9-2.4c1-1.4,1.7-3,2-4.7L503.3,48.3z"/>
	<ellipse id="XMLID_40_" class="st0" cx="488.3" cy="46.5" rx="3" ry="3"/>
</g>
<polyline id="right-chevron" class="st0" points="127.7,172 142.7,157 127.7,142 "/>
<g id="close">
	<polyline class="st0" points="30.6,172 45.6,157 30.6,142 	"/>
	<polyline class="st0" points="60.6,142 45.6,157 60.6,172 	"/>
</g>
<path id="heart" class="st0" d="M592.6,261.7c0-4.5-3.7-8.2-8.3-8.2c-2.7,0-5.1,1.3-6.7,3.2c-1.5-2-3.9-3.2-6.7-3.2
	c-4.6,0-8.3,3.7-8.3,8.2c0,1.9,0.7,3.7,1.8,5.1l0,0c0.1,0.2,13.1,14.7,13.1,14.7l13.2-14.7C591.9,265.4,592.6,263.6,592.6,261.7z"/>
<g id="clock">
	<circle id="XMLID_39_" class="st0" cx="311.3" cy="157" r="15"/>
	<polyline id="XMLID_38_" class="st0" points="311.3,145.8 311.3,157 317.4,163.2 	"/>
</g>
<g id="upload">
	<polyline id="XMLID_37_" class="st0" points="413.8,165.9 413.8,172 385.8,172 385.8,165.9 	"/>
	<g id="XMLID_34_">
		<polyline id="XMLID_36_" class="st0" points="407.9,149.8 399.8,142 391.8,149.8 		"/>
		<line id="XMLID_35_" class="st0" x1="399.8" y1="165.9" x2="399.8" y2="142"/>
	</g>
</g>
<g id="download">
	<polyline id="XMLID_33_" class="st0" points="502.3,165.9 502.3,172 498.5,172 474.3,172 474.3,165.9 	"/>
	<g id="XMLID_30_">
		<polyline id="XMLID_32_" class="st0" points="480.3,158.1 488.3,165.9 496.4,158.1 		"/>
		<line id="XMLID_31_" class="st0" x1="488.3" y1="142" x2="488.3" y2="165.9"/>
	</g>
</g>
<polygon id="play" class="st0" points="34.7,282.1 58.7,267.1 34.7,252.1 "/>
<polygon id="star" class="st0" points="403.8,262.9 399.6,253.1 395.4,262.9 384.6,263.8 392.8,270.8 390.3,281.1 399.6,275.6 
	408.9,281.1 406.4,270.8 414.6,263.8 "/>
<polyline id="checkmark" class="st0" points="206.4,558 216.4,568 236.4,548 "/>
<g id="new-document">
	<polyline id="XMLID_69_" class="st0" points="144.4,259.3 144.4,283.9 122.4,283.9 122.4,253.9 138.9,253.9 	"/>
	<polygon id="XMLID_68_" class="st0" points="144.4,259.3 138.9,253.9 138.9,259.3 	"/>
</g>
<g id="new-page">
	<polyline id="XMLID_67_" class="st0" points="233.6,259.3 233.6,283.9 211.6,283.9 211.6,253.9 228.1,253.9 	"/>
	<polygon id="XMLID_66_" class="st0" points="233.6,259.3 228.1,253.9 228.1,259.3 	"/>
	<line id="XMLID_65_" class="st0" x1="216" y1="270" x2="229.8" y2="270"/>
	<line id="XMLID_64_" class="st0" x1="216" y1="265.8" x2="229.8" y2="265.8"/>
	<line id="XMLID_63_" class="st0" x1="216" y1="274.2" x2="229.8" y2="274.2"/>
	<line id="XMLID_62_" class="st0" x1="216" y1="278.4" x2="229.8" y2="278.4"/>
</g>
<g id="home">
	<polyline id="XMLID_61_" class="st0" points="326.2,266.8 311.2,255.9 296.2,266.8 	"/>
	<polyline id="XMLID_60_" class="st0" points="322.6,264.2 322.6,279.9 314.5,279.9 314.5,269.5 307.8,269.5 307.8,279.9 
		299.7,279.9 299.7,264.2 	"/>
</g>
<g id="share">
	<g>
		<circle class="st0" cx="408.5" cy="477.1" r="3.9"/>
		<circle class="st0" cx="390.7" cy="488.1" r="3.9"/>
		<circle class="st0" cx="408.5" cy="499.3" r="3.9"/>
		<line class="st0" x1="394" y1="490.2" x2="405.2" y2="497.2"/>
	</g>
	<line class="st0" x1="393.9" y1="485.9" x2="405.2" y2="479.3"/>
</g>
<g id="mouse-scroll">
	<path class="st0" d="M576.8,473.2c-5,0-9,4-9,9v12c0,5,4,9,9,9c5,0,9-4,9-9v-12C585.8,477.2,581.7,473.2,576.8,473.2z M578.4,483.4
		c0,0.8-0.7,1.5-1.5,1.5s-1.5-0.7-1.5-1.5v-3c0-0.8,0.7-1.5,1.5-1.5s1.5,0.7,1.5,1.5V483.4z"/>
</g>
<g id="envelope">
	<polyline id="XMLID_76_" class="st0" points="562.6,368.6 577.6,379 592.5,368.6 592.5,368.6 	"/>
	<rect id="XMLID_75_" x="562.6" y="368.6" class="st0" width="30" height="18"/>
</g>
<g id="link">
	<g id="XMLID_78_">
		<path id="XMLID_84_" class="st0" d="M480.3,269.2c0,0-4.2,4.2-4.2,4.2c-2,2.1-2,5.4,0,7.5c2.1,2.1,5.4,2.1,7.5,0
			c0,0,4.2-4.2,4.2-4.2"/>
		<path id="XMLID_83_" class="st0" d="M487.1,266.7c-1.9-0.7-4-0.3-5.5,1.2c0,0-1.8,1.8-1.9,1.9"/>
		<path id="XMLID_82_" class="st0" d="M487.3,277.3c0,0,1.8-1.8,1.9-1.9c1.5-1.5,1.9-3.6,1.2-5.5"/>
		<path id="XMLID_81_" class="st0" d="M498.8,265.8c0,0,4.2-4.2,4.2-4.2c2-2.1,2-5.4,0-7.5c-2.1-2.1-5.4-2.1-7.5,0
			c0,0-4.2,4.2-4.2,4.2"/>
		<path id="XMLID_80_" class="st0" d="M492,268.3c1.9,0.7,4,0.3,5.5-1.2c0,0,1.8-1.8,1.9-1.9"/>
		<path id="XMLID_79_" class="st0" d="M491.9,257.7c0,0-1.8,1.8-1.9,1.9c-1.5,1.5-1.9,3.6-1.2,5.5"/>
	</g>
	<line id="XMLID_77_" class="st0" x1="484.4" y1="272.7" x2="494.8" y2="262.3"/>
</g>
<g id="wifi">
	<path class="st0" d="M384.7,374.1c3.6-4.1,9-6.7,15-6.7c6,0,11.4,2.6,15,6.7"/>
	<path class="st0" d="M388.8,378.1c2.5-3.1,6.5-5.1,10.9-5.1c4.4,0,8.3,2,10.9,5.1"/>
	<path class="st0" d="M392.9,382.1c1.4-2.1,3.9-3.5,6.7-3.5c2.8,0,5.2,1.4,6.7,3.4"/>
	<ellipse class="st1" cx="399.7" cy="386.4" rx="1" ry="1"/>
</g>
<g id="chat-bubble">
	<path class="st0" d="M489.9,388.1c-0.8,0.1-1.6,0.2-2.5,0.2c-1.5,0-3.8-0.3-5.1-0.6c-0.9-0.2-2,2.4-4.4,1.9c0,0,2.2-2.8,0.6-3.8
		c-3.3-2-5.3-5.2-5.3-8.8c0-6.3,6.4-11.3,14.2-11.3s14.2,5.1,14.2,11.3"/>
	<path class="st0" d="M484.2,381.2c0,4.2,4.3,7.6,9.5,7.6c1,0,2.5-0.2,3.4-0.4c0.6-0.1,1.4,1.6,3,1.3c0,0-1.5-1.9-0.4-2.5
		c2.2-1.3,3.5-3.5,3.5-5.9c0-4.2-4.3-7.6-9.5-7.6S484.2,377,484.2,381.2z"/>
</g>
<g id="menu">
	<g id="XMLID_71_">
		<line id="XMLID_74_" class="st0" x1="30.5" y1="367.9" x2="60.5" y2="367.9"/>
		<line id="XMLID_73_" class="st0" x1="30.5" y1="378.9" x2="60.5" y2="378.9"/>
		<line id="XMLID_72_" class="st0" x1="30.5" y1="389.9" x2="60.5" y2="389.9"/>
	</g>
	<line id="XMLID_70_" class="st0" x1="30.5" y1="378.9" x2="60.5" y2="378.9"/>
</g>
<g id="right-align">
	<line id="XMLID_112_" class="st0" x1="326.1" y1="500.2" x2="306.1" y2="500.2"/>
	<line id="XMLID_111_" class="st0" x1="326.1" y1="492.2" x2="296.1" y2="492.2"/>
	<line id="XMLID_110_" class="st0" x1="326.1" y1="476.2" x2="296.1" y2="476.2"/>
	<line id="XMLID_109_" class="st0" x1="326.1" y1="484.2" x2="306.1" y2="484.2"/>
</g>
<g id="center-align">
	<line id="XMLID_108_" class="st0" x1="233.5" y1="500.2" x2="213.6" y2="500.2"/>
	<line id="XMLID_107_" class="st0" x1="238.6" y1="492.2" x2="208.6" y2="492.2"/>
	<line id="XMLID_106_" class="st0" x1="238.6" y1="476.2" x2="208.6" y2="476.2"/>
	<line id="XMLID_105_" class="st0" x1="233.5" y1="484.2" x2="213.6" y2="484.2"/>
</g>
<g id="left-align">
	<line id="XMLID_104_" class="st0" x1="140" y1="500.2" x2="120.1" y2="500.2"/>
	<line id="XMLID_103_" class="st0" x1="150.1" y1="492.2" x2="120.1" y2="492.2"/>
	<line id="XMLID_102_" class="st0" x1="150.1" y1="476.2" x2="120.1" y2="476.2"/>
	<line id="XMLID_101_" class="st0" x1="140" y1="484.2" x2="120.1" y2="484.2"/>
	<line id="XMLID_100_" class="st0" x1="140" y1="500.2" x2="120.1" y2="500.2"/>
	<line id="XMLID_99_" class="st0" x1="150.1" y1="492.2" x2="120.1" y2="492.2"/>
	<line id="XMLID_98_" class="st0" x1="150.1" y1="476.2" x2="120.1" y2="476.2"/>
	<line id="XMLID_97_" class="st0" x1="140" y1="484.2" x2="120.1" y2="484.2"/>
</g>
<g id="justify-center">
	<line id="XMLID_96_" class="st0" x1="52.1" y1="500.2" x2="32.1" y2="500.2"/>
	<line id="XMLID_95_" class="st0" x1="62.1" y1="492.2" x2="32.1" y2="492.2"/>
	<line id="XMLID_94_" class="st0" x1="52.1" y1="484.2" x2="32.1" y2="484.2"/>
	<line id="XMLID_93_" class="st0" x1="62.3" y1="500.2" x2="32.1" y2="500.2"/>
	<line id="XMLID_92_" class="st0" x1="62.1" y1="492.2" x2="32.1" y2="492.2"/>
	<line id="XMLID_91_" class="st0" x1="62.1" y1="476.2" x2="32.1" y2="476.2"/>
	<line id="XMLID_90_" class="st0" x1="62.3" y1="484.2" x2="32.1" y2="484.2"/>
</g>
<g id="camera">
	<polygon id="XMLID_59_" class="st0" points="499.4,482.3 498.5,477.2 485.5,477.2 484.7,482.3 477,482.3 477,499.2 507,499.2 
		507,482.3 	"/>
	<ellipse id="XMLID_58_" class="st0" cx="492" cy="489.5" rx="5" ry="5"/>
</g>
<g id="zoom-out">
	<g id="XMLID_55_">
		<path id="XMLID_57_" class="st0" d="M314.3,365.6c4.3,4.3,4.3,11.3,0,15.6c-4.3,4.3-11.2,4.3-15.5,0s-4.3-11.3,0-15.6
			C303.1,361.3,310.1,361.3,314.3,365.6z"/>
		<line id="XMLID_56_" class="st0" x1="314.6" y1="381.3" x2="325.6" y2="392.4"/>
	</g>
	<line id="XMLID_54_" class="st0" x1="311.6" y1="373.4" x2="301.9" y2="373.4"/>
</g>
<g id="zoom-in">
	<g id="XMLID_51_">
		<path id="XMLID_53_" class="st0" d="M225.1,365.6c4.3,4.3,4.3,11.3,0,15.6c-4.3,4.3-11.2,4.3-15.5,0s-4.3-11.3,0-15.6
			C213.9,361.3,220.8,361.3,225.1,365.6z"/>
		<line id="XMLID_52_" class="st0" x1="225.3" y1="381.3" x2="236.4" y2="392.4"/>
	</g>
	<line id="XMLID_50_" class="st0" x1="222.4" y1="373.3" x2="212.9" y2="373.3"/>
	<line id="XMLID_49_" class="st0" x1="217.6" y1="368.6" x2="217.6" y2="378.1"/>
</g>
<g id="add">
	<line id="XMLID_121_" class="st0" x1="55.5" y1="557.4" x2="25.5" y2="557.4"/>
	<line id="XMLID_120_" class="st0" x1="40.5" y1="542.4" x2="40.5" y2="572.4"/>
</g>
<line id="substract" class="st0" x1="144.4" y1="557.4" x2="114.4" y2="557.4"/>
<g id="print">
	<polyline id="XMLID_119_" class="st0" points="569.6,171.8 561.8,171.8 561.8,158.9 591.8,158.9 591.8,171.8 583.5,171.8 	"/>
	<rect id="XMLID_118_" x="569.9" y="147.6" class="st0" width="13.8" height="11.3"/>
	<rect id="XMLID_117_" x="569.6" y="168.1" class="st0" width="13.8" height="8.3"/>
</g>
<g id="cut">
	<polyline id="XMLID_89_" class="st0" points="507,553.9 507,542.7 495.9,542.7 	"/>
	<line id="XMLID_88_" class="st0" x1="490.2" y1="559.6" x2="507" y2="542.7"/>
	<polyline id="XMLID_87_" class="st0" points="488.7,542.7 477,542.7 477,572.7 507,572.7 507,561.1 	"/>
</g>
<g id="copy">
	<polyline id="XMLID_86_" class="st0" points="569,551.3 565.2,551.3 565.2,573.2 587.2,573.2 587.2,569.5 	"/>
	<polyline id="XMLID_85_" class="st0" points="595.2,543.2 573.3,543.2 573.3,565.2 595.2,565.2 595.2,543.2 	"/>
</g>
<polygon id="bookmark" class="st0" points="318.1,572.4 308.1,557.4 298.1,572.4 298.1,542.4 318.1,542.4 "/>
<g id="browser">
	<rect id="XMLID_126_" x="391.3" y="545.4" class="st0" width="30" height="24"/>
	<line id="XMLID_125_" class="st0" x1="391.3" y1="552.6" x2="421.1" y2="552.6"/>
	<circle id="XMLID_124_" class="st2" cx="395.6" cy="549" r="0.9"/>
	<circle id="XMLID_123_" class="st2" cx="399.1" cy="549" r="0.9"/>
	<circle id="XMLID_122_" class="st2" cx="402.7" cy="549" r="0.9"/>
</g>
<g id="cart">
	<polygon id="XMLID_131_" class="st0" points="584.4,52.2 565.9,52.2 560.4,44.2 584.4,44.2 	"/>
	<polyline id="XMLID_130_" class="st0" points="583.2,52.4 583.2,56.4 568.4,56.4 	"/>
	<polyline id="XMLID_129_" class="st0" points="584.4,44 584.4,39.1 590.4,38 	"/>
	<ellipse id="XMLID_128_" class="st0" cx="568.2" cy="58.7" rx="2.2" ry="2.3"/>
	<ellipse id="XMLID_127_" class="st0" cx="582.3" cy="58.7" rx="2.2" ry="2.3"/>
</g>
<polyline id="left-chevron" class="st0" points="229.9,173.1 214.9,158.1 229.9,143.1 "/>
<g id="menu-alt">
	<g id="XMLID_113_">
		<line id="XMLID_116_" class="st0" x1="118.1" y1="364.5" x2="148.1" y2="364.5"/>
		<line id="XMLID_115_" class="st0" x1="117.9" y1="375.5" x2="141.4" y2="375.5"/>
		<line id="XMLID_114_" class="st0" x1="117.6" y1="386.5" x2="133.6" y2="386.5"/>
	</g>
</g>
</svg>
